<svg xmlns="http://www.w3.org/2000/svg" width="42.551" height="42.551" viewBox="0 0 42.551 42.551">
  <g id="icons8_Cancel" transform="translate(0)">
    <path id="Path_153" data-name="Path 153" d="M24.275,3A21.275,21.275,0,1,0,45.551,24.275,21.3,21.3,0,0,0,24.275,3Zm0,3.273a18,18,0,1,1-18,18A17.98,17.98,0,0,1,24.275,6.273Zm-6.188,9.462-2.353,2.353,6.188,6.188-6.188,6.188,2.353,2.353,6.188-6.188,6.188,6.188,2.353-2.353-6.188-6.188,6.188-6.188-2.353-2.353-6.188,6.188Z" transform="translate(-3 -3)" fill="#5b5b5b"/>
  </g>
</svg>
