<svg xmlns="http://www.w3.org/2000/svg" xmlns:xlink="http://www.w3.org/1999/xlink" width="49.569" height="85.741" viewBox="0 0 49.569 85.741">
  <defs>
    <linearGradient id="linear-gradient" x1="0.5" x2="0.5" y2="1.575" gradientUnits="objectBoundingBox">
      <stop offset="0" stop-color="#5655a8"/>
      <stop offset="1" stop-color="#2b2b54"/>
    </linearGradient>
  </defs>
  <g id="icons8_Pregnant_7" transform="translate(-7.906 -2)">
    <path id="Path_400" data-name="Path 400" d="M32.691,2a12.189,12.189,0,0,0-8.325,21.148,21.462,21.462,0,0,0-5.072,5.168c-3.17,4.485-5.371,10.143-6.986,15.694A125.692,125.692,0,0,0,8.193,66.019l-.287,3.349H23.5V87.741h6.124V69.368h6.124V87.741h6.124V69.368h15.6l-.287-3.349a125.713,125.713,0,0,0-4.115-22.009c-1.615-5.55-3.816-11.208-6.986-15.694a21.467,21.467,0,0,0-5.072-5.168A12.19,12.19,0,0,0,32.691,2Zm0,6.124a6.124,6.124,0,1,1-6.124,6.124A6.076,6.076,0,0,1,32.691,8.124Zm0,18.373c3.254,0,5.9,1.9,8.421,5.455s4.522,8.612,6.029,13.78a105.549,105.549,0,0,1,3.54,17.512H14.7a105.525,105.525,0,0,1,3.541-17.512c1.507-5.167,3.5-10.227,6.028-13.78S29.437,26.5,32.691,26.5ZM28.1,41.808A4.6,4.6,0,0,0,23.5,46.4c0,4.485,9.187,10.718,9.187,10.718s9.187-6.1,9.187-10.718a4.593,4.593,0,0,0-9.187,0A4.6,4.6,0,0,0,28.1,41.808Z" transform="translate(0)" fill="url(#linear-gradient)"/>
  </g>
</svg>
