<svg id="icons8_Virus_3" xmlns="http://www.w3.org/2000/svg" xmlns:xlink="http://www.w3.org/1999/xlink" width="84.673" height="85.495" viewBox="0 0 84.673 85.495">
  <defs>
    <linearGradient id="linear-gradient" x1="0.5" y1="1.887" x2="0.5" y2="0.358" gradientUnits="objectBoundingBox">
      <stop offset="0" stop-color="#2a2a58"/>
      <stop offset="1" stop-color="#7473df"/>
    </linearGradient>
  </defs>
  <path id="Path_173" data-name="Path 173" d="M45.441,3.125a9.834,9.834,0,0,0-3.288,19.113v7.53a16.317,16.317,0,0,0-5.73,2.441l-7.653-7.662A6.613,6.613,0,1,0,24.117,29.2l7.662,7.653a16.207,16.207,0,0,0-2.417,5.73H22.629a9.865,9.865,0,1,0,0,6.577h6.733a16.206,16.206,0,0,0,2.417,5.73l-7.662,7.653A6.613,6.613,0,1,0,28.769,67.2l7.653-7.662a16.317,16.317,0,0,0,5.73,2.441v7.53a9.865,9.865,0,1,0,6.577,0v-7.53a16.356,16.356,0,0,0,5.713-2.425l7.67,7.67a6.7,6.7,0,0,0-.23,1.669,6.577,6.577,0,1,0,6.577-6.577,6.71,6.71,0,0,0-1.718.23L59.1,54.9a16.111,16.111,0,0,0,2.425-5.738h7.555a9.865,9.865,0,1,0,0-6.577H61.521a16.207,16.207,0,0,0-2.417-5.73l7.67-7.653a6.509,6.509,0,0,0,1.685.23,6.613,6.613,0,1,0-6.346-4.883L54.459,32.21a16.317,16.317,0,0,0-5.73-2.441v-7.53A9.834,9.834,0,0,0,45.441,3.125Zm0,6.577a3.288,3.288,0,1,1-3.288,3.288A3.236,3.236,0,0,1,45.441,9.7Zm0,26.306a9.865,9.865,0,1,1-9.865,9.865A9.82,9.82,0,0,1,45.441,36.008ZM13.38,42.584a3.288,3.288,0,1,1-3.288,3.288A3.236,3.236,0,0,1,13.38,42.584Zm64.943,0a3.288,3.288,0,1,1-3.288,3.288A3.236,3.236,0,0,1,78.324,42.584ZM45.441,75.467a3.288,3.288,0,1,1-3.288,3.288A3.236,3.236,0,0,1,45.441,75.467Z" transform="translate(-3.516 -3.125)" fill="url(#linear-gradient)"/>
</svg>
