<svg xmlns="http://www.w3.org/2000/svg" width="50" height="50" viewBox="0 0 50 50">
  <g id="icons8_Cotton_Candy" transform="translate(-6.563 -8)">
    <path id="Path_25" data-name="Path 25" d="M36.335,8A7.751,7.751,0,0,0,29.7,12.235a10.581,10.581,0,0,0-1.454-.19A12.17,12.17,0,0,0,16.107,24.182a10.2,10.2,0,0,0,.316,2.086,6.9,6.9,0,0,0-2.339,4.994A6.805,6.805,0,0,0,15.6,35.37a9.762,9.762,0,0,0-1.517,4.994,9.96,9.96,0,0,0,1.643,5.563L6.562,55.092,9.47,58l9.166-9.166A9.96,9.96,0,0,0,24.2,50.478a9.829,9.829,0,0,0,6.764-2.908,9.3,9.3,0,0,0,3.35.885c.348,0,.672-.032,1.011-.063a10.625,10.625,0,0,0,2.908-.759c.15-.063.292-.119.442-.19.174-.087.332-.221.506-.316A10.147,10.147,0,0,0,43.6,42.2a4.606,4.606,0,0,0,.822.19A8.117,8.117,0,0,0,52.517,34.3a6.275,6.275,0,0,0-.126-.885,7.8,7.8,0,0,0,2.149-5.183A7.538,7.538,0,0,0,53.465,25a9.883,9.883,0,0,0,3.1-6.89A10.144,10.144,0,0,0,46.449,8,9.736,9.736,0,0,0,41.2,9.707a7.838,7.838,0,0,0-3.54-1.58A6.693,6.693,0,0,0,36.335,8Zm0,4.046a6.5,6.5,0,0,1,1.58.316.945.945,0,0,1,.126.063,3.612,3.612,0,0,1,.569.316c.024.016.04.047.063.063a3.9,3.9,0,0,1,.506.442c.079.079.174.166.253.253a4.029,4.029,0,0,1,.948,2.592,3.959,3.959,0,0,1-.759,2.339l3.287,2.4a8.129,8.129,0,0,0,1.517-4.741,7.973,7.973,0,0,0-.759-3.35,5.784,5.784,0,0,1,2.781-.7,6.058,6.058,0,0,1,3.6,10.936l-1.643,1.2,1.264,1.643a3.876,3.876,0,0,1,.822,2.4,3.979,3.979,0,0,1-1.454,3.1l-1.011.822.316,1.2a3.924,3.924,0,0,1,.126.948,4.013,4.013,0,0,1-4.046,4.046,10.166,10.166,0,0,0-4.235-8.217l-2.339,3.287a6.02,6.02,0,0,1,2.4,6.131A6.2,6.2,0,0,1,39.5,41.5c-.047.079-.071.174-.126.253a6.094,6.094,0,0,1-.442.569c-.095.111-.213.213-.316.316a6.02,6.02,0,0,1-4.3,1.77,5.782,5.782,0,0,1-2.845-.759l-1.517-.822-1.075,1.327A5.937,5.937,0,0,1,24.2,46.432a6.04,6.04,0,0,1-6.068-6.068,5.931,5.931,0,0,1,1.454-3.856l1.327-1.58L19.268,33.6a2.939,2.939,0,0,1-1.138-2.339,2.973,2.973,0,0,1,1.454-2.592l1.327-.822-.379-1.454a7.882,7.882,0,0,1,7.712-10.3,7.872,7.872,0,0,1,1.833.253l1.833.442.569-1.833A4.032,4.032,0,0,1,36.335,12.046ZM32.289,25.193a3.005,3.005,0,0,1-3.034,3.034v4.046a7.109,7.109,0,0,0,7.08-7.08Z" transform="translate(0 0)" fill="#7473df"/>
  </g>
</svg>
