<svg xmlns="http://www.w3.org/2000/svg" width="42.308" height="50" viewBox="0 0 42.308 50">
  <g id="icons8_Resume" transform="translate(-5 -3)">
    <path id="Path_28" data-name="Path 28" d="M5,3V53H47.308V3ZM8.846,6.846H43.462V49.154H8.846Zm9.615,5.769a3.825,3.825,0,0,0-2.764,6.49,5.777,5.777,0,0,0-3,5.048h3.846a1.923,1.923,0,1,1,3.846,0h3.846a5.777,5.777,0,0,0-3-5.048,3.825,3.825,0,0,0-2.764-6.49Zm9.615,0v3.846H39.615V12.615Zm0,7.692v3.846H39.615V20.308ZM12.692,31.846v3.846H28.077V31.846Zm19.231,0v3.846h7.692V31.846ZM12.692,39.538v3.846h9.615V39.538Zm19.231,0v3.846h7.692V39.538Z" transform="translate(0 0)" fill="#7473df"/>
  </g>
</svg>
