<svg xmlns="http://www.w3.org/2000/svg" width="50" height="50" viewBox="0 0 50 50">
  <g id="icons8_Postal" transform="translate(-4 -6)">
    <path id="Path_26" data-name="Path 26" d="M34.769,6v7.692H17.462a9.644,9.644,0,0,0-9.615,9.615V42.538h3.846V23.308a5.769,5.769,0,0,1,11.538,0v1.923H15.538V42.538h7.692v1.923H4v3.846H30.923V56h3.846V48.308H54v-25a9.644,9.644,0,0,0-9.615-9.615H40.538v3.846h3.846a5.742,5.742,0,0,1,5.769,5.769V44.462H27.077V23.308a9.452,9.452,0,0,0-1.983-5.769h9.675v5.769h3.846V9.846h3.846V6Z" fill="#7473df"/>
  </g>
</svg>
