<svg xmlns="http://www.w3.org/2000/svg" width="414.711" height="469.662" viewBox="0 0 414.711 469.662">
  <g id="Group_606" data-name="Group 606" transform="translate(0.001 0.1)">
    <path id="Path_362" data-name="Path 362" d="M14.582,307.462H11.413a50.833,50.833,0,0,0,1.291,5.517h3.639C15.756,311.1,15.169,309.34,14.582,307.462Zm27.7-175.844-3.522.587h0c-1.291,1.761-2.582,3.639-3.756,5.4A200.978,200.978,0,0,0,1.2,249.356a207.044,207.044,0,0,0,2.348,30.99c1.526-.587,2.935-1.174,4.461-1.761A202.01,202.01,0,0,1,5.9,249.239,196.741,196.741,0,0,1,39,139.835c1.291-1.878,2.465-3.639,3.756-5.517h0ZM143.237,56.256A203.181,203.181,0,0,0,42.755,126.688l3.287-.587.587,3.287a198.178,198.178,0,0,1,97.43-68.319C143.707,59.426,143.472,57.9,143.237,56.256ZM383.292,156.621a203.318,203.318,0,0,0-119.5-100.365c-.235,1.526-.352,3.169-.7,4.7a198.343,198.343,0,0,1,115.86,97.43c1.056,2,2.113,4.109,3.052,6.1h0l3.052,1.174,1.174-3.169h0C385.17,160.495,384.231,158.5,383.292,156.621Zm5.635,11.856-1.174,3.169-3.052-1.174a196.588,196.588,0,0,1,16.434,79,198.606,198.606,0,0,1-7.043,52.472c1.409.7,2.817,1.409,4.226,2.23a202.664,202.664,0,0,0-9.391-135.7ZM375.661,346.552c-.117.117-.117.235-.235.352a4.118,4.118,0,0,1-.587.939c-.939,1.643-1.878,3.287-2.935,4.813a201.591,201.591,0,0,1-16.082,22.538c-.587.7-1.174,1.409-1.643,2-1.056,1.291-2.113,2.465-3.169,3.639a7.082,7.082,0,0,1-.939.939l3.287,3.287.939-.939c1.056-1.174,2.113-2.465,3.169-3.639.117-.117.235-.352.352-.47.7-.822,1.409-1.761,2.113-2.582,1.174-1.409,2.348-2.817,3.4-4.343a199.706,199.706,0,0,0,13.852-20.308c.587-.939,1.056-1.761,1.526-2.7.587-.939,1.056-1.878,1.526-2.817v-.117c.47-.939,1.056-1.878,1.526-2.7l-3.522-3.522A27.5,27.5,0,0,1,375.661,346.552ZM209.208,447.034c-1.878.117-3.756.117-5.635.117h-1.056l-2.348,2.348,2.348,2.348h1.056c1.878,0,3.639,0,5.517-.117a201.359,201.359,0,0,0,112.925-38.268c-1.174-1.056-2.348-2.113-3.522-3.287A197.163,197.163,0,0,1,209.208,447.034ZM232.1,49.213c-.822-.117-1.526-.235-2.348-.352-2.23-.352-4.461-.587-6.691-.822h-.235L220.36,47.8h-.235c-.822-.117-1.643-.117-2.465-.235h-.235c-4.578-.352-9.273-.47-13.969-.47s-9.391.117-13.969.47a20.955,20.955,0,0,0-2.7.235c-.47,0-.939.117-1.409.117h0c-.352,0-.822.117-1.174.117l-6.339.7c-1.291.117-2.582.352-3.756.47-.352,0-.587.117-.939.117v4.7c.352,0,.587-.117.939-.117,1.291-.235,2.582-.352,3.756-.587,3.052-.352,6.221-.7,9.391-.939.47,0,.939-.117,1.409-.117h1.526c.939-.117,2-.117,2.935-.235,3.522-.235,6.926-.235,10.447-.235s6.926.117,10.447.235h0c.939.117,2,.117,2.935.235h.7c.7,0,1.409.117,2.113.117h.117q4.93.352,9.86,1.056c.822.117,1.526.235,2.348.352s1.526.235,2.348.352v-4.7A17.643,17.643,0,0,0,232.1,49.213Zm-212.7,272.1H15.873c.235.47.47.939.7,1.526.235.47.47.822.7,1.291.47.939,1.056,1.878,1.643,2.817h2.817C20.921,324.953,20.217,323.192,19.395,321.314Zm43.2,66.44H56.137c1.761,1.878,3.522,3.756,5.4,5.517h6.808C66.349,391.511,64.471,389.632,62.593,387.754Zm26.881,22.89h0c-1.643-1.174-3.287-2.348-4.813-3.522-.352-.235-.822-.587-1.174-.822-2-1.526-3.874-3.052-5.869-4.7H70.34c2.113,1.878,4.343,3.756,6.574,5.517h6.574c.235,2.348.352,4.109.47,5.4h0c.822.587,1.643,1.174,2.465,1.878h.235l2.817.117A17.4,17.4,0,0,0,89.474,410.645ZM50.267,374.02H44.281c.117.235.352.352.47.587,1.291,1.643,2.7,3.287,3.991,4.93h6.221C53.319,377.659,51.676,375.9,50.267,374.02Zm-10.1-13.5c-.587-.939-1.174-1.761-1.761-2.7a10.321,10.321,0,0,1-.7-1.174c-1.761-2.7-3.4-5.4-5.048-8.217h0a58.515,58.515,0,0,1-5.869-4.343,5.1,5.1,0,0,1-.822-.7c-.235-.235-.47-.352-.7-.587-.7-.587-1.409-1.291-2.113-2,2.113,4.226,4.461,8.452,6.926,12.56h0c2.113,1.291,4.343,2.583,6.691,3.756-1.174.47-2.348.939-3.522,1.526.822,1.291,1.761,2.7,2.582,3.991.117.235.352.47.47.7,1.409-.587,2.935-1.174,4.461-1.761A4.758,4.758,0,0,0,40.172,360.521ZM25.5,335.048h-.352a5.425,5.425,0,0,0,.822.822A1.892,1.892,0,0,1,25.5,335.048ZM195.943,446.917a197.639,197.639,0,0,1-86.4-23.595c-1.056,1.291-2.113,2.465-3.169,3.639a199.445,199.445,0,0,0,89.213,24.651l-2.23-2.113ZM25.5,335.048h-.352a5.425,5.425,0,0,0,.822.822A1.892,1.892,0,0,1,25.5,335.048Zm-6.1-13.734H15.873c.235.47.47.939.7,1.526.235.47.47.822.7,1.291.47.939,1.056,1.878,1.643,2.817h2.817C20.921,324.953,20.217,323.192,19.395,321.314ZM50.267,374.02H44.281c.117.235.352.352.47.587,1.291,1.643,2.7,3.287,3.991,4.93h6.221C53.319,377.659,51.676,375.9,50.267,374.02Zm135.111-326.1h0c-.47,0-.822.117-1.174.117l-6.339.7v4.7c3.052-.352,6.221-.7,9.391-.939.47,0,.939-.117,1.409-.117A33.944,33.944,0,0,1,185.379,47.922Zm32.281-.235h-.235a46,46,0,0,1-2.935,3.756H189.37v.939h.7c.939-.117,2-.117,2.935-.235,3.522-.235,6.926-.235,10.447-.235s6.926.117,10.447.235h0c.939.117,2,.117,2.935.235h.7v-.939h-2.935A39.126,39.126,0,0,0,217.66,47.687Z" transform="translate(0.209 8.206)" fill="#49495a"/>
    <path id="Path_363" data-name="Path 363" d="M11.291,275.008A50.828,50.828,0,0,1,10,269.491H81.958c.47-2.465.587-3.874.7-3.991l5.517.47c0,.352-3.287,31.694-29.7,49.067a2.943,2.943,0,0,1-.822.47h-.117c-1.761-.7-3.639-1.291-5.635-1.878l-1.409-.352a54.313,54.313,0,0,0,14.321-10.682H29.6a50.207,50.207,0,0,1-5.165-4.7h0a5.422,5.422,0,0,0-.822-.822h45.9a49.447,49.447,0,0,0,5.282-8.334H17.278c-.587-.939-1.174-1.878-1.643-2.817-.235-.47-.47-.822-.7-1.291s-.47-.939-.7-1.526H77.38a72.334,72.334,0,0,0,2.935-8.334H11.291Z" transform="translate(1.739 46.177)" fill="#fff"/>
    <path id="Path_364" data-name="Path 364" d="M56.228,349.783H18.078A45.956,45.956,0,0,0,15.5,355.3H61.628C59.867,353.54,57.989,351.661,56.228,349.783ZM44.842,336.636c-.117-.235-.352-.352-.47-.587H29.112a47.612,47.612,0,0,0-5.4,5.517H48.833C47.542,339.923,46.25,338.279,44.842,336.636Zm44.841,36.037h0c-.7-10.1-5.165-37.564-30.755-50.828a47.929,47.929,0,0,0-4.93-2.23c-.352-.117-.822-.235-1.174-.352-.235-.117-.47-.117-.587-.235-.235-.117-.47-.117-.7-.235-2.348-.7-4.578-1.409-6.691-2.23-2.23-.822-4.343-1.878-6.339-2.817a12.8,12.8,0,0,1-1.291-.7c-1.526-.822-2.817-1.643-4.226-2.465h0a58.514,58.514,0,0,1-5.869-4.343,5.107,5.107,0,0,1-.822-.7c-.235-.235-.47-.352-.7-.587-.7-.587-1.409-1.291-2.113-2h0l-.235-.235a72.092,72.092,0,0,1-4.93-5.517,52.559,52.559,0,0,1-5.4-8.334,5.106,5.106,0,0,0-.47-.822c-.822-1.643-1.526-3.169-2.23-4.7A53.682,53.682,0,0,1,7.4,275.008a53.084,53.084,0,0,1-1.174-5.517c-.117-.47-.117-.822-.235-1.291v-.117c-.235-1.409-.352-2.348-.352-2.583L0,265.97c0,.352,3.4,32.164,30.286,49.42h0c2.113,1.291,4.343,2.583,6.691,3.756-1.174.47-2.348.939-3.522,1.526C-.7,336.284,0,376.078,0,376.547l5.517-.117a62.251,62.251,0,0,1,.47-7.161c.235-1.643.47-3.522.939-5.517A61.11,61.11,0,0,1,10.1,353.3c.47-1.056.939-2.23,1.409-3.287a58.417,58.417,0,0,1,5.048-8.569,59.235,59.235,0,0,1,4.461-5.282,37.524,37.524,0,0,1,3.169-2.935,49.859,49.859,0,0,1,12.443-7.747c1.409-.587,2.935-1.174,4.461-1.761a12.824,12.824,0,0,1,2-.587c.587-.235,1.174-.352,1.761-.587.587.235,1.174.352,1.761.587,1.643.47,3.287,1.056,4.813,1.643a51.368,51.368,0,0,1,17.373,11.386H29.229a47.615,47.615,0,0,0-5.4,5.517H73.366v-.47c.117.117.117.235.235.235.939,1.291,1.761,2.7,2.582,3.991.235.352.352.7.587,1.056.587,1.056,1.174,2.23,1.643,3.287H18.078A45.956,45.956,0,0,0,15.5,355.3h64.21v-2.23a17.113,17.113,0,0,1,.822,2.23c.235.587.352,1.056.587,1.643,0,.235.117.352.117.587a14.2,14.2,0,0,1,.587,2.113c.117.235.117.47.235.7.117.47.235.939.352,1.526s.235,1.291.352,1.878H12.8c-.47,2-.822,3.874-1.056,5.517H83.814c.235,2.348.352,4.109.47,5.4h0v1.761l2.465.117h.235l2.817.117C89.8,376.43,89.8,375.021,89.683,372.673ZM44.842,336.636c-.117-.235-.352-.352-.47-.587H29.112a47.612,47.612,0,0,0-5.4,5.517H48.833C47.542,339.923,46.25,338.279,44.842,336.636Zm11.386,13.147H18.078A45.956,45.956,0,0,0,15.5,355.3H61.628C59.867,353.54,57.989,351.661,56.228,349.783ZM44.842,336.636c-.117-.235-.352-.352-.47-.587H29.112a47.612,47.612,0,0,0-5.4,5.517H48.833C47.542,339.923,46.25,338.279,44.842,336.636Z" transform="translate(0 46.177)" fill="#fff"/>
    <path id="Path_365" data-name="Path 365" d="M360.844,365.248a24.763,24.763,0,0,1-17.256,7.161,24.263,24.263,0,0,1-17.256-7.161L301.094,340.01l-25.238-25.238a24.4,24.4,0,1,1,34.512-34.511l50.593,50.593A24.408,24.408,0,0,1,360.844,365.248Z" transform="translate(46.721 47.499)" fill="#fff"/>
    <path id="Path_366" data-name="Path 366" d="M222.253,100.969c-1.291,1.174-2.582,2.465-3.991,3.522a39.781,39.781,0,0,0-7.63-15.847v.117l-2.23-2.817a39.969,39.969,0,0,0-16.2-10.33,17.021,17.021,0,0,1-24.651,0,39.724,39.724,0,0,0-26.177,28.76q-2.113-1.761-3.874-3.522a43.967,43.967,0,0,1,12.091-19.721V27.486c0-10.565,4.93-21.247,15.73-22.186,2.23-3.522,7.161-5.4,14.673-5.4,30.286,0,30.873,23.595,30.873,23.829V81.6A45.649,45.649,0,0,1,222.253,100.969Z" transform="translate(23.906)" fill="#fff"/>
    <g id="Group_495" data-name="Group 495" transform="translate(0 311.56)">
      <path id="Path_367" data-name="Path 367" d="M5.513,268.9a47.4,47.4,0,0,0,1.174,5.517H3.4V268.9Z" transform="translate(0.591 -264.791)" fill="#fd7569"/>
      <path id="Path_368" data-name="Path 368" d="M84.071,268.9v5.517H11.291A50.828,50.828,0,0,1,10,268.9Z" transform="translate(1.739 -264.791)" fill="#7473df"/>
      <path id="Path_369" data-name="Path 369" d="M5.513,268.9a47.4,47.4,0,0,0,1.174,5.517H3.4V268.9Z" transform="translate(0.591 -264.791)" fill="#d9dcea"/>
      <path id="Path_370" data-name="Path 370" d="M43.1,268.9v5.517H11.291A50.828,50.828,0,0,1,10,268.9Z" transform="translate(1.739 -264.791)" fill="#49495a"/>
      <path id="Path_371" data-name="Path 371" d="M10.83,285.3c.117.235.352.587.47.822H8.6V280.6h.117A41.312,41.312,0,0,0,10.83,285.3Z" transform="translate(1.495 -262.757)" fill="#fd7569"/>
      <path id="Path_372" data-name="Path 372" d="M77.341,280.717v5.517H16.652c-.587-.939-1.174-1.878-1.643-2.817-.235-.47-.47-.822-.7-1.291s-.47-.939-.7-1.526H77.341Z" transform="translate(2.365 -262.757)" fill="#7473df"/>
      <rect id="Rectangle_130" data-name="Rectangle 130" width="34.864" height="5.517" transform="translate(44.841 17.96)" fill="#49495a"/>
      <path id="Path_373" data-name="Path 373" d="M20.674,298.017H14.1V292.5h1.643A67.053,67.053,0,0,0,20.674,298.017Z" transform="translate(2.451 -260.688)" fill="#fd7569"/>
      <path id="Path_374" data-name="Path 374" d="M69.511,292.4v5.517H27.487a50.207,50.207,0,0,1-5.165-4.7h0a5.422,5.422,0,0,0-.822-.822Z" transform="translate(3.738 -260.706)" fill="#7473df"/>
      <rect id="Rectangle_131" data-name="Rectangle 131" width="28.29" height="5.517" transform="translate(44.841 31.694)" fill="#49495a"/>
      <path id="Path_375" data-name="Path 375" d="M6.335,349.1c-.47,2-.7,3.874-.939,5.517h-2V349.1Z" transform="translate(0.591 -250.848)" fill="#fd7569"/>
      <path id="Path_376" data-name="Path 376" d="M84.071,349.1v5.517H10c.235-1.643.587-3.522,1.056-5.517Z" transform="translate(1.739 -250.848)" fill="#7473df"/>
      <path id="Path_377" data-name="Path 377" d="M10.009,337.3A25.128,25.128,0,0,0,8.6,340.587V337.3Z" transform="translate(1.495 -252.899)" fill="#fd7569"/>
      <path id="Path_378" data-name="Path 378" d="M79.758,337.3v5.517H13.2c.7-1.761,1.643-3.639,2.582-5.517Z" transform="translate(2.295 -252.899)" fill="#7473df"/>
      <path id="Path_379" data-name="Path 379" d="M10.009,337.3A25.128,25.128,0,0,0,8.6,340.587V337.3Z" transform="translate(1.495 -252.899)" fill="#d9dcea"/>
      <path id="Path_380" data-name="Path 380" d="M42.547,337.3v5.517H13.2c.7-1.761,1.643-3.639,2.582-5.517Z" transform="translate(2.295 -252.899)" fill="#49495a"/>
      <path id="Path_381" data-name="Path 381" d="M18.561,325.6a37.967,37.967,0,0,0-4.461,5.282V325.6Z" transform="translate(2.451 -254.934)" fill="#fd7569"/>
      <path id="Path_382" data-name="Path 382" d="M69.737,325.6l3.756,5.517H20.2a59.562,59.562,0,0,1,5.4-5.517Z" transform="translate(3.512 -254.934)" fill="#7473df"/>
      <path id="Path_383" data-name="Path 383" d="M18.561,325.6a37.967,37.967,0,0,0-4.461,5.282V325.6Z" transform="translate(2.451 -254.934)" fill="#d9dcea"/>
      <path id="Path_384" data-name="Path 384" d="M41.329,325.6v5.517H20.2a59.562,59.562,0,0,1,5.4-5.517Z" transform="translate(3.512 -254.934)" fill="#49495a"/>
      <path id="Path_385" data-name="Path 385" d="M55.229,313.952a45.816,45.816,0,0,1-7.4,2.7c-1.526-.587-3.169-1.174-4.813-1.643-.587-.235-1.174-.352-1.761-.587-.587.235-1.174.352-1.761.587a18.1,18.1,0,0,1-2,.587c-1.526.587-3.052,1.056-4.461,1.761A49.857,49.857,0,0,0,20.6,325.1a58.641,58.641,0,0,1,11.973-8.452c1.409-.7,2.817-1.409,4.343-2a19.574,19.574,0,0,1,2.348-.939c1.878-.7,3.874-1.409,5.987-2a21.9,21.9,0,0,0,2.582-.822c.235.117.47.117.7.235a.9.9,0,0,1,.587.235c.47.117.822.235,1.174.352A47.934,47.934,0,0,1,55.229,313.952Z" transform="translate(3.582 -257.489)" fill="#fff"/>
      <path id="Path_386" data-name="Path 386" d="M51.339,307.7a2.943,2.943,0,0,1-.822.47H50.4A3.516,3.516,0,0,0,51.339,307.7Z" transform="translate(8.763 -258.046)" fill="#fff"/>
      <path id="Path_387" data-name="Path 387" d="M84.283,375.491v-.822h0a35.741,35.741,0,0,0-.47-5.4c0-.235-.117-.587-.117-.822-.235-1.409-.47-2.935-.822-4.7a70.058,70.058,0,0,0-2.348-8.334c-.235-.7-.587-1.409-.822-2.23-.47-1.056-.939-2.23-1.409-3.287a54.554,54.554,0,0,0-4.813-8.334.252.252,0,0,0-.235-.235,59.235,59.235,0,0,0-4.461-5.282,48.121,48.121,0,0,0-17.373-11.386c-1.526-.587-3.169-1.174-4.813-1.643-.587-.235-1.174-.352-1.761-.587-.587.235-1.174.352-1.761.587a18.1,18.1,0,0,1-2,.587c-1.526.587-3.052,1.056-4.461,1.761a49.858,49.858,0,0,0-12.443,7.747,38.991,38.991,0,0,0-3.169,2.935,37.968,37.968,0,0,0-4.461,5.282A54.4,54.4,0,0,0,11.5,349.9a25.128,25.128,0,0,0-1.409,3.287,64.429,64.429,0,0,0-3.169,10.447c-.47,2-.7,3.874-.939,5.517a58.256,58.256,0,0,0-.47,6.339H0c.117-6.456,2.465-40.616,33.455-54.819,1.174-.47,2.348-1.056,3.522-1.526a61.456,61.456,0,0,1-6.691-3.756h0C3.4,298.251,0,266.439,0,265.97l5.517-.47c0,.235.117,1.174.352,2.583v.117a6.057,6.057,0,0,0,.235,1.291,47.4,47.4,0,0,0,1.174,5.517,69.883,69.883,0,0,0,2.817,8.334c.587,1.526,1.409,3.052,2.23,4.7.117.235.352.587.47.822a52.56,52.56,0,0,0,5.4,8.334,42.661,42.661,0,0,0,4.93,5.517l.235.235h0c.7.7,1.409,1.291,2.113,2,.235.235.47.352.7.587s.587.47.822.7a44.7,44.7,0,0,0,5.869,4.343h0q1.937,1.233,4.226,2.465c.47.235.822.47,1.291.7a51.808,51.808,0,0,0,6.339,2.817,55.872,55.872,0,0,0,6.691,2.23c.235.117.47.117.7.235a.9.9,0,0,1,.587.235c.47.117.822.235,1.174.352,1.761.7,3.4,1.526,4.93,2.23,25.708,13.382,30.051,40.85,30.755,50.828h0a25.827,25.827,0,0,1,.117,2.7h-5.4Z" transform="translate(0 -265.383)" fill="#49495a"/>
      <path id="Path_388" data-name="Path 388" d="M82.081,265.987c0,.352-3.287,31.694-29.7,49.067a2.943,2.943,0,0,1-.822.47h-.117c-1.761-.7-3.639-1.291-5.635-1.878l-1.409-.352a54.313,54.313,0,0,0,14.321-10.682,50.876,50.876,0,0,0,4.7-5.517A49.447,49.447,0,0,0,68.7,288.76c1.056-1.878,1.878-3.756,2.7-5.517a72.332,72.332,0,0,0,2.935-8.334c.587-2.113,1.056-3.991,1.409-5.517.47-2.465.587-3.874.7-3.991Z" transform="translate(7.719 -265.4)" fill="#49495a"/>
    </g>
    <g id="Group_496" data-name="Group 496" transform="translate(315.446 320.599)">
      <path id="Path_389" data-name="Path 389" d="M307.078,311.3c7.513-7.513,21.364-8.8,21.364-8.8l27.116,27.116s12.091,17.256.235,29.229c-11.856,11.856-30.99,2.817-30.99,2.817l-27.7-27.7S299.565,318.934,307.078,311.3Z" transform="translate(-263.792 -267.989)" fill="#7473df"/>
      <path id="Path_390" data-name="Path 390" d="M360.844,330.737,344.41,314.3l-34.042-34.042a24.4,24.4,0,1,0-34.512,34.511l25.238,25.238,25.238,25.238a24.556,24.556,0,0,0,17.256,7.161,24.416,24.416,0,0,0,17.256-41.672ZM280.2,310.311a18.423,18.423,0,0,1,0-25.825,18.208,18.208,0,0,1,25.825,0l22.655,22.655h-1.409a24.263,24.263,0,0,0-17.256,7.161,23.911,23.911,0,0,0-7.043,18.664ZM356.5,360.9a21.5,21.5,0,0,1-3.639,2.817,5.1,5.1,0,0,1-.822.47c-.235.117-.587.235-.822.352-.587.235-1.056.47-1.643.7a10.9,10.9,0,0,1-1.526.47c-.587.117-1.291.235-1.878.352-.235,0-.47.117-.822.117-.587,0-1.174.117-1.761.117a8.884,8.884,0,0,1-1.761-.117,2,2,0,0,1-.822-.117l-1.761-.352a19.511,19.511,0,0,1-3.4-1.174c-.235-.117-.587-.235-.822-.352a6.736,6.736,0,0,1-.822-.47,21.5,21.5,0,0,1-3.639-2.817l-16.551-16.551-.117-.117a17.374,17.374,0,0,1-2.583-3.4,18.271,18.271,0,0,1,14.086-27.468,20.029,20.029,0,0,1,5.282.352,18.023,18.023,0,0,1,9.156,4.93L356.383,335.2A18.173,18.173,0,0,1,356.5,360.9Z" transform="translate(-268.725 -273.1)" fill="#49495a"/>
      <path id="Path_391" data-name="Path 391" d="M320.208,341.46a3.434,3.434,0,0,1-2.23-.939L307.53,330.074a3.071,3.071,0,1,1,4.343-4.343l10.447,10.447a3.119,3.119,0,0,1,0,4.343A2.549,2.549,0,0,1,320.208,341.46Z" transform="translate(-262.131 -264.103)" fill="#fff"/>
      <circle id="Ellipse_54" data-name="Ellipse 54" cx="3.052" cy="3.052" r="3.052" transform="translate(61.129 77.357)" fill="#fff"/>
    </g>
    <path id="Path_392" data-name="Path 392" d="M164.834,71.9V61.454S153.213,50.3,153.213,32.929,164.13,11.448,164.13,11.448L162.838,6.4l-11.386,6.926L148.4,36.8V82.231Z" transform="translate(25.801 1.13)" fill="#7473df"/>
    <path id="Path_393" data-name="Path 393" d="M176.933,8.8h0c-30.638,0-23.712,34.394-19.017,41.907,3.991,6.339,9.039,15.495,19.017,15.495h.117c9.978,0,15.025-9.274,19.017-15.495C200.645,43.194,207.57,8.8,176.933,8.8Z" transform="translate(26.732 1.547)" fill="#fff"/>
    <path id="Path_394" data-name="Path 394" d="M163.112,12.8s5.4,18.312,34.159,18.312c0,0,4.461,16.669-9.743,30.99v9.978s11.739,3.756,16.786,9.86V23.6S204.08,2,175.79,2C157.712,2,163.112,12.8,163.112,12.8Z" transform="translate(28.228 0.365)" fill="#7473df"/>
    <path id="Path_395" data-name="Path 395" d="M164.938,4.5V9.2h-.587a1.489,1.489,0,0,0-.7.117,4.161,4.161,0,0,0-1.291.352c-5.282,1.761-9.626,8.452-9.86,16.2V81.388h-4.7v-54.7c0-11.386,7.043-21.129,15.73-22.069A5.263,5.263,0,0,1,164.938,4.5Z" transform="translate(25.697 0.8)" fill="#7b417b"/>
    <path id="Path_396" data-name="Path 396" d="M222.548,100.952A44.557,44.557,0,0,0,210.927,81.7V23.829c0-.235-.587-23.829-30.873-23.829-7.513,0-12.443,1.761-14.673,5.4-10.917.939-15.73,11.621-15.73,22.186V81.349a45.27,45.27,0,0,0-12.091,19.721A41.268,41.268,0,0,0,135.8,113.16h4.7a34.967,34.967,0,0,1,1.056-8.569,39.724,39.724,0,0,1,26.177-28.76,17.021,17.021,0,0,0,24.651,0,38.459,38.459,0,0,1,16.2,10.33l2.23,2.817v-.117a39.042,39.042,0,0,1,7.63,15.847,34.966,34.966,0,0,1,1.056,8.569h4.7A38.2,38.2,0,0,0,222.548,100.952Zm-56.228-84.4c2.817,5.4,11.152,16.551,33.338,17.138a31.287,31.287,0,0,1-2.935,17.96l-.352.47c-.7,1.174-1.526,2.348-2.348,3.639a46,46,0,0,1-2.935,3.756,3.112,3.112,0,0,0-.587.7,16.591,16.591,0,0,1-5.4,3.991,12.313,12.313,0,0,1-5.165,1.056,11.774,11.774,0,0,1-5.048-1.056,19.515,19.515,0,0,1-5.4-3.991,3.113,3.113,0,0,1-.587-.7,28.5,28.5,0,0,1-2.817-3.756c-.822-1.174-1.643-2.465-2.348-3.639l-.822-1.174c-2.7-4.343-6.339-19.6-.939-29.464A19.308,19.308,0,0,1,166.32,16.551Zm3.169-8.687c1.291-2,5.048-3.169,10.565-3.169,25.473,0,26.177,18.43,26.177,19.134V76.888a51.5,51.5,0,0,0-12.091-6.221V63.388h0c.822-.822,1.643-1.761,2.348-2.582a33.534,33.534,0,0,0,3.052-4.461c.47-.822.939-1.643,1.409-2.582l.117-.235c2.817-4.343,5.517-14.791,4.226-24.534l-1.878.117H200.6c-20.66-.352-27.938-10.447-30.168-14.791-.587-1.056-.7-1.761-.822-1.878l-.117-.352v-.117a6.2,6.2,0,0,1-.47-2.23A3.717,3.717,0,0,1,169.49,7.865Zm-15.025,19.6v-.822c.235-8.8,3.991-14.908,9.86-16.317v.117a6.929,6.929,0,0,0,.235,1.643,21.029,21.029,0,0,0-6.691,7.161c-6.221,11.269-2.582,28.29,1.174,34.159l.7,1.174c.352.47.587,1.056.939,1.526.939,1.409,1.878,2.935,3.052,4.461.7.939,1.409,1.761,2.113,2.582v7.982a41.954,41.954,0,0,0-11.621,5.987V27.468ZM180.172,76.3a12.208,12.208,0,0,1-9.391-4.461h0V67.262h0a18.449,18.449,0,0,0,9.391,2.817,17.632,17.632,0,0,0,9.391-2.7v4.7A12.56,12.56,0,0,1,180.172,76.3Z" transform="translate(23.61 0.017)" fill="#49495a"/>
    <g id="Group_497" data-name="Group 497" transform="translate(25.942 139.824)">
      <path id="Path_397" data-name="Path 397" d="M41.586,135.651l-4.578.822-1.643-8.921L34.9,124.5l-3.522.7-8.452,1.409-.822-4.578,13.03-2.348,3.522-.587.587,2.935Z" transform="translate(-22.1 -119.1)" fill="#49495a"/>
    </g>
    <g id="Group_498" data-name="Group 498" transform="translate(200.378 445.615)">
      <path id="Path_398" data-name="Path 398" d="M185.96,400.26l-3.287,3.287-9.626-9.626-2.348-2.348,2.348-2.348h0L179.269,383l3.287-3.4,3.4,3.4-6.221,6.221-2.465,2.348,2.348,2.348Z" transform="translate(-170.7 -379.6)" fill="#49495a"/>
    </g>
    <g id="Group_499" data-name="Group 499" transform="translate(369.297 156.376)">
      <path id="Path_399" data-name="Path 399" d="M336.316,134.843l-4.7,12.56h0l-1.174,3.169-3.052-1.056h0l-8.334-3.052-4.461-1.643,1.643-4.461,8.1,3.052,3.4,1.174,1.056-2.935,3.052-8.452Z" transform="translate(-314.6 -133.2)" fill="#49495a"/>
    </g>
  </g>
</svg>
