<svg xmlns="http://www.w3.org/2000/svg" width="35.417" height="50" viewBox="0 0 35.417 50">
  <g id="icons8_Microscope" transform="translate(-14 -8)">
    <path id="Path_27" data-name="Path 27" d="M34.833,8v4.167h8.333V8ZM32.75,14.25v4.167H28.583A10.458,10.458,0,0,0,18.167,28.833v8.724a6.2,6.2,0,0,0,0,11.719v4.557H14V58H49.417V53.833H22.333V49.276A6.283,6.283,0,0,0,26.109,45.5H49.417V41.333H26.109a6.324,6.324,0,0,0-3.776-3.776V28.833a6.252,6.252,0,0,1,6.25-6.25H32.75v12.5h12.5V14.25Zm4.167,4.167h4.167v12.5H36.917ZM20.25,41.333a2.083,2.083,0,1,1-2.083,2.083A2.057,2.057,0,0,1,20.25,41.333Z" transform="translate(0 0)" fill="#7473df"/>
  </g>
</svg>
