<svg xmlns="http://www.w3.org/2000/svg" xmlns:xlink="http://www.w3.org/1999/xlink" width="58.106" height="50" viewBox="0 0 58.106 50">
  <defs>
    <linearGradient id="linear-gradient" x1="0.5" x2="0.5" y2="2.3" gradientUnits="objectBoundingBox">
      <stop offset="0" stop-color="#7473df"/>
      <stop offset="1" stop-color="#3a3a70"/>
    </linearGradient>
  </defs>
  <g id="icons8_Heart_Health_1" transform="translate(-2 -4)">
    <path id="Path_30" data-name="Path 30" d="M17.564,4A15.631,15.631,0,0,0,2,19.564a13.481,13.481,0,0,0,2.594,7.393,19.2,19.2,0,0,0,2.529,3.048l22.438,22.5L31.053,54l1.492-1.492,22.438-22.5s5.123-4.515,5.123-10.441A15.631,15.631,0,0,0,44.542,4c-7.125,0-11.714,4.288-13.489,6.1C29.278,8.288,24.69,4,17.564,4Zm0,4.15c6.2,0,11.933,6.031,11.933,6.031l1.556,1.751,1.556-1.751S38.341,8.15,44.542,8.15A11.451,11.451,0,0,1,55.956,19.564c0,3.2-3.891,7.523-3.891,7.523L31.053,48.1,10.041,27.087a16.4,16.4,0,0,1-2.01-2.464A10.09,10.09,0,0,1,6.15,19.564,11.451,11.451,0,0,1,17.564,8.15ZM48.239,14.96,33.128,30.07l-6.809-6.809-2.983,2.983,8.3,8.3,1.491,1.427,1.492-1.427,16.6-16.6Z" fill="url(#linear-gradient)"/>
  </g>
</svg>
