<?xml version="1.0" encoding="UTF-8"?>
<svg xmlns="http://www.w3.org/2000/svg" xmlns:xlink="http://www.w3.org/1999/xlink" width="30pt" height="30pt" viewBox="0 0 30 30" version="1.1">
<g id="surface2112991">
<path style="fill-rule:nonzero;fill:rgb(100%,100%,100%);fill-opacity:1;stroke-width:6;stroke-linecap:butt;stroke-linejoin:round;stroke:rgb(100%,100%,100%);stroke-opacity:1;stroke-miterlimit:10;" d="M 154.803936 40.13071 C 156.865477 40.107283 158.786458 41.184907 159.840656 42.965329 C 160.871426 44.769177 160.871426 46.971278 159.840656 48.7517 C 158.786458 50.532122 156.865477 51.633172 154.803936 51.609745 L 17.196064 51.609745 C 15.134523 51.633172 13.213542 50.532122 12.159344 48.7517 C 11.128574 46.971278 11.128574 44.769177 12.159344 42.965329 C 13.213542 41.184907 15.134523 40.107283 17.196064 40.13071 Z M 154.803936 80.260482 C 156.865477 80.237055 158.786458 81.314679 159.840656 83.118528 C 160.871426 84.89895 160.871426 87.10105 159.840656 88.881472 C 158.786458 90.685321 156.865477 91.762945 154.803936 91.739518 L 17.196064 91.739518 C 15.134523 91.762945 13.213542 90.685321 12.159344 88.881472 C 11.128574 87.10105 11.128574 84.89895 12.159344 83.118528 C 13.213542 81.314679 15.134523 80.237055 17.196064 80.260482 Z M 154.803936 120.390255 C 156.865477 120.366828 158.786458 121.467878 159.840656 123.2483 C 160.871426 125.028722 160.871426 127.230823 159.840656 129.034671 C 158.786458 130.815093 156.865477 131.892717 154.803936 131.86929 L 17.196064 131.86929 C 15.134523 131.892717 13.213542 130.815093 12.159344 129.034671 C 11.128574 127.230823 11.128574 125.028722 12.159344 123.2483 C 13.213542 121.467878 15.134523 120.366828 17.196064 120.390255 Z M 154.803936 120.390255 " transform="matrix(0.166744,0,0,0.166744,0.66,0.66)"/>
<path style=" stroke:none;fill-rule:nonzero;fill:rgb(100%,100%,100%);fill-opacity:1;" d="M 3.527344 7.351562 C 3.183594 7.347656 2.863281 7.527344 2.6875 7.824219 C 2.515625 8.125 2.515625 8.492188 2.6875 8.789062 C 2.863281 9.085938 3.183594 9.269531 3.527344 9.265625 L 26.472656 9.265625 C 26.816406 9.269531 27.136719 9.085938 27.3125 8.789062 C 27.484375 8.492188 27.484375 8.125 27.3125 7.824219 C 27.136719 7.527344 26.816406 7.347656 26.472656 7.351562 Z M 3.527344 14.042969 C 3.183594 14.039062 2.863281 14.21875 2.6875 14.519531 C 2.515625 14.816406 2.515625 15.183594 2.6875 15.480469 C 2.863281 15.78125 3.183594 15.960938 3.527344 15.957031 L 26.472656 15.957031 C 26.816406 15.960938 27.136719 15.78125 27.3125 15.480469 C 27.484375 15.183594 27.484375 14.816406 27.3125 14.519531 C 27.136719 14.21875 26.816406 14.039062 26.472656 14.042969 Z M 3.527344 20.734375 C 3.183594 20.730469 2.863281 20.914062 2.6875 21.210938 C 2.515625 21.507812 2.515625 21.875 2.6875 22.175781 C 2.863281 22.472656 3.183594 22.652344 3.527344 22.648438 L 26.472656 22.648438 C 26.816406 22.652344 27.136719 22.472656 27.3125 22.175781 C 27.484375 21.875 27.484375 21.507812 27.3125 21.210938 C 27.136719 20.914062 26.816406 20.730469 26.472656 20.734375 Z M 3.527344 20.734375 "/>
</g>
</svg>
