<svg xmlns="http://www.w3.org/2000/svg" xmlns:xlink="http://www.w3.org/1999/xlink" width="113.598" height="117.04" viewBox="0 0 113.598 117.04">
  <defs>
    <linearGradient id="linear-gradient" x1="0.376" y1="0.437" x2="3.146" y2="0.437" gradientUnits="objectBoundingBox">
      <stop offset="0" stop-color="#7473df"/>
      <stop offset="1" stop-color="#2a2a58"/>
    </linearGradient>
  </defs>
  <g id="Group_574" data-name="Group 574" transform="translate(0.002 -0.035)">
    <path id="XMLID_44_" d="M96.379,31.1c5.638,7.518,5.583,19.568-2.93,25.372A119.929,119.929,0,0,1,77.474,65.1C69.349,68.965,61,72.337,52.876,76.207a43.35,43.35,0,0,0-8.457,5.638c-8.181,6.633-10.447,15.036-6.689,24.93,1.6,4.146,3.814,8.071,5.417,12.493a50.582,50.582,0,0,1-4.256-4.864c-3.593-5.086-7.739-9.95-10.337-15.478-5.2-11.056-1.769-21.779,8.292-28.8,6.578-4.588,14.151-6.8,21.669-9.231,7.849-2.543,15.809-4.864,23.438-7.96C88.53,50.281,94,46.025,95.661,38.562A42.643,42.643,0,0,0,96.379,31.1Z" transform="translate(-11.695 -13.893)" fill="url(#linear-gradient)"/>
    <path id="XMLID_43_" d="M7.6,161.137c5.141-.884,10.226-1.658,15.367-2.6,11.719-2.156,22.609-6.3,32.172-13.654,11.774-9.066,15.036-20.232,9.729-34.162-.94-2.488-2.156-4.864-3.427-7.684,2.377-.995,4.754-1.99,7.3-3.04,4.754,8.844,8.4,17.855,7.684,27.915-.884,12.106-8.015,20.011-18.352,25.428-11.056,5.749-23.051,7.9-35.433,8.347-5.03.166-10.005.055-15.036.055C7.6,161.524,7.6,161.358,7.6,161.137Z" transform="translate(-3.4 -44.707)" fill="url(#linear-gradient)"/>
    <path id="XMLID_42_" d="M95.079,43.51c-.276.332-.276.442-.387.442-8.071,2.653-6.578,3.151-8.513-4.146a41.048,41.048,0,0,1-1.161-14.649c1-8.347,6.8-13.046,14.483-15.644,10.945-3.648,28.91-1.437,39.358,2.93-8.955-.663-17.965-.995-26.81,1.271a36.3,36.3,0,0,0-6.246,2.156c-9.4,4.312-13.543,12.327-11.774,22.5C94.415,40.138,94.8,41.907,95.079,43.51Z" transform="translate(-37.922 -3.418)" fill="url(#linear-gradient)"/>
    <path id="XMLID_41_" d="M86.072,148.405c-.332.719-.442,1.106-.608,1.382-2.156,4.312-2.322,4.312-6.025,1.492-5.638-4.312-11.221-8.623-16.86-12.99a5.357,5.357,0,0,1-1.879-2.377c.719,0,1.548-.276,2.1.055C70.539,140,78.168,144.149,86.072,148.405Z" transform="translate(-27.147 -60.719)" fill="url(#linear-gradient)"/>
    <path id="XMLID_40_" d="M52.3,150c1.327.166,2.211,0,2.653.387,6.081,4.975,12.106,10.061,18.352,15.312-1.271.884-2.266,1.935-3.427,2.266-1,.276-2.653.111-3.206-.553-4.588-5.141-9.01-10.392-13.488-15.644C53.019,151.492,52.908,151.161,52.3,150Z" transform="translate(-23.391 -67.068)" fill="url(#linear-gradient)"/>
    <path id="XMLID_39_" d="M92.243,135.423c-7.518-2.985-14.98-5.915-22.443-8.844v-.774a16.933,16.933,0,0,1,3.7-.166c5.583,1.106,11.111,2.377,16.694,3.648C92.519,129.84,93.072,131.443,92.243,135.423Z" transform="translate(-31.217 -56.139)" fill="url(#linear-gradient)"/>
    <path id="XMLID_38_" d="M159.6,165.141a5.142,5.142,0,0,1,10.282-.166,5.37,5.37,0,0,1-5.307,5.251A4.98,4.98,0,0,1,159.6,165.141Z" transform="translate(-71.378 -71.54)" fill="url(#linear-gradient)"/>
    <path id="XMLID_37_" d="M193.979,123.248a5.06,5.06,0,0,1-5.086,5.03,5.133,5.133,0,0,1-5.2-5.251,5.241,5.241,0,0,1,5.417-5.03A5.067,5.067,0,0,1,193.979,123.248Z" transform="translate(-82.153 -52.753)" fill="url(#linear-gradient)"/>
    <path id="XMLID_36_" d="M17.74,47a4.983,4.983,0,0,1,5.2,4.864A5.286,5.286,0,0,1,17.8,57.226a5.259,5.259,0,0,1-5.2-4.975A5.087,5.087,0,0,1,17.74,47Z" transform="translate(-5.635 -21.003)" fill="url(#linear-gradient)"/>
    <path id="XMLID_35_" d="M174.7,52.3a4.875,4.875,0,0,1,5.086-5.2,5.392,5.392,0,0,1,5.2,5.03,5.238,5.238,0,0,1-5.251,5.2A4.848,4.848,0,0,1,174.7,52.3Z" transform="translate(-78.131 -21.048)" fill="url(#linear-gradient)"/>
    <path id="XMLID_34_" d="M145.251,175a4.788,4.788,0,0,1,5.03,5.03,5.194,5.194,0,0,1-5.03,5.2A5.261,5.261,0,0,1,140,179.92,5.043,5.043,0,0,1,145.251,175Z" transform="translate(-62.611 -78.248)" fill="url(#linear-gradient)"/>
    <path id="XMLID_33_" d="M174.5,145.84a4.933,4.933,0,0,1,5.251-5.141,5.086,5.086,0,1,1-.111,10.171A4.971,4.971,0,0,1,174.5,145.84Z" transform="translate(-78.041 -62.908)" fill="url(#linear-gradient)"/>
    <path id="XMLID_32_" d="M3.4,122.94A4.789,4.789,0,0,1,8.541,117.8a4.881,4.881,0,0,1,4.975,5.086,5.01,5.01,0,0,1-5.141,5.2A4.926,4.926,0,0,1,3.4,122.94Z" transform="translate(-1.521 -52.666)" fill="url(#linear-gradient)"/>
    <path id="XMLID_31_" d="M197.181,98.927a4.993,4.993,0,0,1-4.92,5.2,5.135,5.135,0,0,1-5.362-5.086,5.141,5.141,0,0,1,10.282-.111Z" transform="translate(-83.586 -41.975)" fill="url(#linear-gradient)"/>
    <path id="XMLID_30_" d="M3.4,74.571A4.838,4.838,0,0,1,8.762,69.6a5.026,5.026,0,0,1,4.864,5.251A5.08,5.08,0,0,1,8.32,79.712,4.882,4.882,0,0,1,3.4,74.571Z" transform="translate(-1.521 -31.107)" fill="url(#linear-gradient)"/>
    <path id="XMLID_29_" d="M5.085,103.8A4.849,4.849,0,0,1,0,98.829,4.968,4.968,0,0,1,5.361,93.8,5,5,0,1,1,5.085,103.8Z" transform="translate(0 -41.933)" fill="url(#linear-gradient)"/>
    <path id="XMLID_28_" d="M194.036,74.841a5.144,5.144,0,0,1-5.086,5.086,5.214,5.214,0,0,1-5.251-5.251,4.979,4.979,0,0,1,5.086-4.975A5.056,5.056,0,0,1,194.036,74.841Z" transform="translate(-82.155 -31.156)" fill="url(#linear-gradient)"/>
    <path id="XMLID_27_" d="M51.9,13a4.7,4.7,0,0,1,5.03,4.92,5.024,5.024,0,0,1-5.141,5.251,5.441,5.441,0,0,1-5.086-5.2A5.076,5.076,0,0,1,51.9,13Z" transform="translate(-20.886 -5.798)" fill="url(#linear-gradient)"/>
    <path id="XMLID_26_" d="M69.6,8.671A4.767,4.767,0,0,1,74.906,3.7a4.958,4.958,0,0,1,4.92,5.2,5.186,5.186,0,0,1-5.251,4.92A4.925,4.925,0,0,1,69.6,8.671Z" transform="translate(-31.127 -1.635)" fill="url(#linear-gradient)"/>
    <path id="XMLID_25_" d="M32.63,27.8a5.033,5.033,0,0,1,5.251,4.864,5.191,5.191,0,0,1-5.03,5.2A4.919,4.919,0,0,1,27.6,32.774,4.8,4.8,0,0,1,32.63,27.8Z" transform="translate(-12.344 -12.416)" fill="url(#linear-gradient)"/>
    <path id="XMLID_24_" d="M122.363,195.251a29.06,29.06,0,0,1-4.091-3.206,1.977,1.977,0,0,1,.5-3.261,18.1,18.1,0,0,0,2.653-2.377c2.322-2.322,4.588-1.879,5.97,1.161C128.941,190.884,126.509,194.7,122.363,195.251Z" transform="translate(-52.603 -82.69)" fill="url(#linear-gradient)"/>
    <path id="XMLID_23_" d="M166.919,38c-.94-3.151-1.879-6.191-2.819-9.4a4.9,4.9,0,0,1,5.694.111,4.727,4.727,0,0,1,2.045,5.251A5.246,5.246,0,0,1,166.919,38Z" transform="translate(-73.39 -12.393)" fill="url(#linear-gradient)"/>
    <path id="XMLID_22_" d="M125.8,27.465c2.764-1.99,4.367-1.658,5.638.995,1.548,3.206,3.538,6.246,5.251,9.4a9.874,9.874,0,0,1,.719,2.266c-.221.111-.5.276-.719.387C133.1,36.2,129.5,31.887,125.8,27.465Z" transform="translate(-56.262 -11.695)" fill="url(#linear-gradient)"/>
    <path id="XMLID_21_" d="M111.7,37.276c2.211-1.382,3.7-1.437,5.417.332,3.593,3.759,7.352,7.241,11.056,10.89-.276.332-.553.663-.884.995C122.092,45.568,116.951,41.533,111.7,37.276Z" transform="translate(-49.956 -16.2)" fill="url(#linear-gradient)"/>
    <path id="XMLID_20_" d="M16.976,140.8c.719,3.206,1.437,6.412,2.156,9.563-3.814.553-6.246-.829-6.578-3.869C12.167,143.177,13.77,141.132,16.976,140.8Z" transform="translate(-5.59 -62.953)" fill="url(#linear-gradient)"/>
    <path id="XMLID_19_" d="M172.4,112.854c-2.487.111-3.7-1-3.7-3.372,0-1.382,2.985-3.814,4.7-3.593,1.879.276,2.764,1.6,2.764,3.482C176.218,111.748,174.891,112.854,172.4,112.854Z" transform="translate(-75.447 -47.334)" fill="url(#linear-gradient)"/>
    <path id="XMLID_18_" d="M172.413,93.944c-2.322.166-3.7-.774-3.814-3.206-.055-2.1,1.658-3.538,4.588-3.538,2.045,0,2.819,1.437,2.819,3.261C176.117,92.728,174.79,93.944,172.413,93.944Z" transform="translate(-75.402 -38.982)" fill="url(#linear-gradient)"/>
    <path id="XMLID_17_" d="M27.689,94.815c-2.487.111-3.869-.774-4.091-3.04-.111-1.161,3.593-4.477,4.7-3.925a5.384,5.384,0,0,1,2.653,3.261C31.447,93.267,29.734,94.76,27.689,94.815Z" transform="translate(-10.553 -39.245)" fill="url(#linear-gradient)"/>
    <path id="XMLID_16_" d="M120.954,58.021a9.275,9.275,0,0,1-2.156-.387c-4.091-1.6-8.126-3.261-12.161-5.03-.663-.276-1-1.382-1.437-2.1.884-.166,1.99-.719,2.653-.387,4.478,2.266,8.844,4.754,13.267,7.131C121.065,57.523,121.009,57.8,120.954,58.021Z" transform="translate(-47.049 -22.351)" fill="url(#linear-gradient)"/>
    <path id="XMLID_15_" d="M35.893,74.161c-.442.5-1.216,1.99-2.322,2.377a5.3,5.3,0,0,1-3.98-.553c-2.156-1.437-1.658-3.427.719-4.367.663-.276,1.327-.553,1.99-.884C34.4,69.794,35.948,70.844,35.893,74.161Z" transform="translate(-12.622 -31.471)" fill="url(#linear-gradient)"/>
    <path id="XMLID_14_" d="M166.892,131.764c-1.05-.94-2.487-1.658-2.985-2.819-.774-1.714.442-2.543,2.1-3.04,1.271-.387,2.266-2.432,3.759-.94a5.551,5.551,0,0,1,1.327,3.372C171.148,130.658,169.545,131.377,166.892,131.764Z" transform="translate(-73.197 -55.631)" fill="url(#linear-gradient)"/>
    <path id="XMLID_13_" d="M45.262,55.607c.055,3.1-1.216,4.477-3.482,4.533-2.377.111-3.869-1.161-3.98-3.206-.055-1.437,3.206-3.593,5.528-3.261C44.212,53.893,44.93,55.275,45.262,55.607Z" transform="translate(-16.905 -23.972)" fill="url(#linear-gradient)"/>
    <path id="XMLID_12_" d="M148.245,159.736c-.553.553-1.437,2.211-2.6,2.432a5.687,5.687,0,0,1-4.312-1.327c-1.6-1.492-.719-3.372,1.437-3.869a13.134,13.134,0,0,0,2.1-.608C147.084,155.535,148.356,156.42,148.245,159.736Z" transform="translate(-62.842 -69.784)" fill="url(#linear-gradient)"/>
    <path id="XMLID_11_" d="M158.25,148.3c-2.322.332-3.483-.774-3.759-2.764-.055-.553.111-1.437.5-1.6A14.149,14.149,0,0,1,159.743,142c.608-.111,1.935,1.327,2.211,2.211a3.218,3.218,0,0,1-2.211,4.146A6.215,6.215,0,0,1,158.25,148.3Z" transform="translate(-69.088 -63.485)" fill="url(#linear-gradient)"/>
    <path id="XMLID_10_" d="M75.262,33.07c-.055,3.1-1.658,4.588-3.98,4.477A3.194,3.194,0,0,1,67.8,34.176c-.055-1.824,2.045-2.985,5.417-2.709C74.1,31.522,74.875,32.739,75.262,33.07Z" transform="translate(-30.322 -14.039)" fill="url(#linear-gradient)"/>
    <path id="XMLID_9_" d="M171.206,71.974c0,2.985-1.658,4.533-3.869,4.533-2.1-.055-3.483-1-3.538-3.261-.055-1.824,2.156-3.151,5.307-2.874C169.935,70.426,170.709,71.587,171.206,71.974Z" transform="translate(-73.255 -31.439)" fill="url(#linear-gradient)"/>
    <path id="XMLID_8_" d="M53.952,47.366c-.719-.884-1.824-2.156-2.819-3.427-.111-.166-.111-.719,0-.774A51.27,51.27,0,0,1,57.269,40.9c.276-.055,1.492,1.769,1.492,2.709C58.6,45.819,57.048,46.98,53.952,47.366Z" transform="translate(-22.832 -18.275)" fill="url(#linear-gradient)"/>
    <path id="XMLID_7_" d="M94.643,114.769c-4.477-.608-9.01-1.161-13.488-1.769a8.165,8.165,0,0,0-.055-1.161,115.1,115.1,0,0,1,11.5-.94c.829,0,1.658,1.99,2.487,3.1C94.975,114.217,94.809,114.493,94.643,114.769Z" transform="translate(-36.271 -49.581)" fill="url(#linear-gradient)"/>
    <path id="XMLID_6_" d="M93.732,6.815c-.608-2.6.111-4.7,2.322-5.97,2.322-1.382,4.588-.995,6.578,1.161C99.7,3.553,96.883,5.1,93.732,6.815Z" transform="translate(-41.828 0)" fill="url(#linear-gradient)"/>
    <path id="XMLID_5_" d="M106.4,65.2c2.764.719,5.583,1.382,8.679,2.156-2.764,1.99-5.473.553-8.071.553-.387,0-.774-1.382-1.106-2.156C106.066,65.587,106.232,65.366,106.4,65.2Z" transform="translate(-47.362 -29.143)" fill="url(#linear-gradient)"/>
    <path id="XMLID_4_" d="M32.663,172.365c-4.367-.719-5.638-2.709-4.7-6.965C29.512,167.722,31,169.877,32.663,172.365Z" transform="translate(-12.377 -73.955)" fill="url(#linear-gradient)"/>
    <path id="XMLID_3_" d="M98.9,201.972c2.487-1.271,4.477-2.322,6.578-3.372C104.87,201.806,102.991,202.856,98.9,201.972Z" transform="translate(-44.231 -88.803)" fill="url(#linear-gradient)"/>
    <path id="XMLID_2_" d="M27.03,105.9c-1.106,2.1-1.935,3.648-2.819,5.307C23.16,108.553,23.713,107.392,27.03,105.9Z" transform="translate(-10.613 -47.345)" fill="url(#linear-gradient)"/>
    <path id="XMLID_1_" d="M132.8,173.064c.884-1.99,1.548-3.427,2.211-4.864C136.006,170.3,135.509,171.793,132.8,173.064Z" transform="translate(-59.392 -75.207)" fill="url(#linear-gradient)"/>
  </g>
</svg>
