<svg id="icons8_Goal" xmlns="http://www.w3.org/2000/svg" width="53.609" height="53.61" viewBox="0 0 53.609 53.61">
  <path id="Path_151" data-name="Path 151" d="M29.8,3a26.849,26.849,0,1,0,22.81,12.758l-3.028,3.029a22.389,22.389,0,0,1,2.9,11.018A22.681,22.681,0,1,1,29.8,7.124a22.39,22.39,0,0,1,11.018,2.9l3.028-3.028A26.607,26.607,0,0,0,29.8,3Zm23.261.58L28.323,28.323a2.1,2.1,0,0,0-.58,1.482A2.066,2.066,0,0,0,29.8,31.867a2.1,2.1,0,0,0,1.482-.58L56.03,6.544ZM29.8,11.248A18.546,18.546,0,1,0,46.558,21.815L43.4,24.972a14.449,14.449,0,1,1-8.763-8.763l3.157-3.157A18.451,18.451,0,0,0,29.8,11.248Zm0,8.248a10.557,10.557,0,1,0,10.181,8.892l-5.8,5.8a6.259,6.259,0,0,1-1.868,1.289c-.032.016-.1-.016-.129,0a6.033,6.033,0,0,1-.9.322c-.073.016-.185.048-.258.064a6.189,6.189,0,0,1-1.224.129,6.055,6.055,0,0,1-2.384-.515,6.1,6.1,0,0,1-3.673-6.894c.016-.073.048-.185.065-.258a5.993,5.993,0,0,1,.322-.9c.016-.032-.016-.1,0-.129a6.157,6.157,0,0,1,1.289-1.869l5.8-5.8A10.319,10.319,0,0,0,29.8,19.5Z" transform="translate(-3 -3)" fill="#7473df"/>
</svg>
