<svg id="icons8_More_Details" xmlns="http://www.w3.org/2000/svg" width="58.482" height="53.61" viewBox="0 0 58.482 53.61">
  <path id="Path_150" data-name="Path 150" d="M4,5V58.61H62.483V5ZM8.874,9.874H57.61V53.736H8.874Zm4.874,7.31v4.874h4.874V17.184Zm7.31,0v4.874H30.8V17.184Zm14.621,0v4.874h4.874V17.184Zm7.31,0v4.874h9.747V17.184ZM13.747,29.368v4.874h4.874V29.368Zm7.31,0v4.874H30.8V29.368Zm14.621,0v4.874h4.874V29.368Zm7.31,0v4.874h9.747V29.368ZM13.747,41.552v4.874h4.874V41.552Zm7.31,0v4.874H30.8V41.552Zm14.621,0v4.874h4.874V41.552Zm7.31,0v4.874h9.747V41.552Z" transform="translate(-4 -5)" fill="#7473df"/>
</svg>
