<svg xmlns="http://www.w3.org/2000/svg" width="915" height="251.084" viewBox="0 0 915 251.084">
  <g id="Group_625" data-name="Group 625" transform="translate(0 -0.057)">
    <g id="Group_394" data-name="Group 394" transform="translate(0 0.057)">
      <g id="Group_388" data-name="Group 388">
        <path id="Path_53" data-name="Path 53" d="M39.4,70.47c0,1.942-.555,15.814-12.485,21.363a18.9,18.9,0,0,1-9.156-8.878A34.7,34.7,0,0,1,14.427,70.47V0H0V70.47A42.1,42.1,0,0,0,4.716,89.058a32.578,32.578,0,0,0,9.71,12.207C3.607,109.589,0,123.461,0,132.062V251.084H14.7V132.062c0-1.942.555-15.814,12.485-21.363a18.9,18.9,0,0,1,9.156,8.878,34.7,34.7,0,0,1,3.329,12.485V251.084h14.7V132.062c0-8.6-3.329-22.473-14.427-30.8,10.82-8.323,14.427-22.2,14.427-30.8V0h-14.7V70.47Z" transform="translate(0)" fill="#7473df"/>
        <path id="Path_54" data-name="Path 54" d="M71.642,89.058A46.929,46.929,0,0,0,76.359,70.47V0h-14.7V70.47c0,1.942-.555,14.982-11.375,20.808a21.134,21.134,0,0,1-8.046-8.323A34.7,34.7,0,0,1,38.9,70.47V0H24.2V70.47a42.1,42.1,0,0,0,4.716,18.589,38.424,38.424,0,0,0,9.156,11.653v1.11C27.529,110.144,24.2,123.739,24.2,132.062V251.084H38.9V132.062c0-1.942.555-14.982,11.375-20.808a21.134,21.134,0,0,1,8.046,8.323,34.7,34.7,0,0,1,3.329,12.485V251.084h14.7V132.062c0-8.6-3.329-21.918-13.872-30.241v-1.11A34.539,34.539,0,0,0,71.642,89.058Z" transform="translate(42.941)" fill="#7473df"/>
      </g>
      <path id="Path_55" data-name="Path 55" d="M100.659,70.47V0h-14.7V70.47c0,1.942-.555,14.982-11.375,20.808a21.134,21.134,0,0,1-8.046-8.323A34.7,34.7,0,0,1,63.2,70.47V0H48.5V70.47c0,8.6,3.329,21.918,13.872,30.241v1.11C51.829,110.144,48.5,123.739,48.5,132.062V251.084H63.2V132.062c0-1.942.555-14.982,11.375-20.808a21.134,21.134,0,0,1,8.046,8.323,34.7,34.7,0,0,1,3.329,12.485V251.084h14.7V132.062c0-8.6-3.329-21.918-13.872-30.241v-1.11C97.33,92.388,100.659,79.071,100.659,70.47Z" transform="translate(86.059)" fill="#d9dcea"/>
    </g>
    <g id="Group_392" data-name="Group 392" transform="translate(370.938 19.158)">
      <g id="Group_389" data-name="Group 389">
        <path id="Path_56" data-name="Path 56" d="M173.374,84.47c0,1.942-.555,15.814-12.485,21.363a18.9,18.9,0,0,1-9.156-8.878A34.7,34.7,0,0,1,148.4,84.47V14H133.7V84.47c0,8.6,3.329,22.473,14.427,30.8a32.578,32.578,0,0,0-9.71,12.207,46.929,46.929,0,0,0-4.716,18.589v80.18h14.7v-80.18a29.062,29.062,0,0,1,3.329-12.485,20.206,20.206,0,0,1,9.156-8.878,18.9,18.9,0,0,1,9.156,8.878,34.7,34.7,0,0,1,3.329,12.485v80.18h14.7v-80.18a42.1,42.1,0,0,0-4.716-18.589,32.578,32.578,0,0,0-9.71-12.207c10.82-8.323,14.427-22.2,14.427-30.8V14h-14.7Z" transform="translate(-133.7 -14)" fill="#7473df"/>
        <path id="Path_57" data-name="Path 57" d="M210.159,84.47V14h-14.7V84.47c0,1.942-.555,14.982-11.375,20.808a21.134,21.134,0,0,1-8.046-8.323A34.7,34.7,0,0,1,172.7,84.47V14H158V84.47c0,8.6,3.329,21.918,13.872,30.241v1.11a38.424,38.424,0,0,0-9.156,11.653A46.929,46.929,0,0,0,158,146.062v80.18h14.7v-80.18a29.063,29.063,0,0,1,3.329-12.485,18.035,18.035,0,0,1,8.046-8.323,21.134,21.134,0,0,1,8.046,8.323,34.7,34.7,0,0,1,3.329,12.485v80.18h14.7v-80.18a42.1,42.1,0,0,0-4.716-18.589,38.424,38.424,0,0,0-9.156-11.653v-1.11C206.83,106.388,210.159,93.071,210.159,84.47Z" transform="translate(-90.582 -14)" fill="#7473df"/>
      </g>
      <path id="Path_58" data-name="Path 58" d="M234.559,84.47V14h-14.7V84.47c0,1.942-.555,14.982-11.375,20.808a21.134,21.134,0,0,1-8.046-8.323A34.7,34.7,0,0,1,197.1,84.47V14H182.4V84.47c0,8.6,3.329,21.918,13.872,30.241v1.11a38.424,38.424,0,0,0-9.156,11.653,46.929,46.929,0,0,0-4.716,18.589v80.18h14.7v-80.18a29.062,29.062,0,0,1,3.329-12.485,18.035,18.035,0,0,1,8.046-8.323,21.134,21.134,0,0,1,8.046,8.323,34.7,34.7,0,0,1,3.329,12.485v80.18h14.7v-80.18a42.1,42.1,0,0,0-4.717-18.589,38.424,38.424,0,0,0-9.156-11.653v-1.11C231.23,106.388,234.559,93.071,234.559,84.47Z" transform="translate(-47.286 -14)" fill="#d9dcea"/>
    </g>
    <g id="Group_393" data-name="Group 393" transform="translate(728.005 43.609)">
      <g id="Group_390" data-name="Group 390">
        <path id="Path_59" data-name="Path 59" d="M302.074,101.97c0,1.942-.555,15.814-12.485,21.363-11.375-5.271-12.207-18.311-12.485-21.363V31.5H262.4v70.47c0,8.6,3.329,22.473,14.427,30.8a32.578,32.578,0,0,0-9.71,12.207,46.929,46.929,0,0,0-4.717,18.589V195.19h14.7V163.562c0-3.052.832-16.092,12.485-21.363,11.375,5.271,12.207,18.311,12.485,21.363V195.19h14.7V163.562a42.1,42.1,0,0,0-4.716-18.589,32.578,32.578,0,0,0-9.71-12.207c10.82-8.323,14.427-22.2,14.427-30.8V31.5h-14.7Z" transform="translate(-262.4 -31.5)" fill="#7473df"/>
        <path id="Path_60" data-name="Path 60" d="M338.859,101.97V31.5h-14.7v70.47a30.412,30.412,0,0,1-3.052,12.207,17.93,17.93,0,0,1-8.323,8.6c-10.543-5.549-11.375-17.756-11.375-20.808V31.5H286.7v70.47c0,8.6,3.329,21.918,13.872,30.241v1.11a38.425,38.425,0,0,0-9.156,11.653,46.93,46.93,0,0,0-4.716,18.589V195.19h14.7V163.562c0-3.052.832-15.259,11.375-20.808,10.543,5.549,11.375,17.756,11.375,20.808V195.19h14.7V163.562c0-8.6-3.329-21.918-13.872-30.241v-.832C335.529,123.888,338.859,110.571,338.859,101.97Z" transform="translate(-219.282 -31.5)" fill="#7473df"/>
      </g>
      <path id="Path_61" data-name="Path 61" d="M363.159,101.97V31.5h-14.7v70.47c0,1.942-.555,14.982-11.375,20.808-10.543-5.549-11.375-17.756-11.375-20.808V31.5H311v70.47c0,8.6,3.329,21.918,13.872,30.241v1.11a38.426,38.426,0,0,0-9.155,11.653A46.93,46.93,0,0,0,311,163.562V195.19h14.7V163.562c0-3.052.832-15.259,11.375-20.808,10.543,5.549,11.375,17.756,11.375,20.808V195.19h14.7V163.562a42.1,42.1,0,0,0-4.717-18.589,38.423,38.423,0,0,0-9.156-11.653v-1.11C359.83,123.888,363.159,110.571,363.159,101.97Z" transform="translate(-176.164 -31.5)" fill="#d9dcea"/>
    </g>
  </g>
</svg>
