<svg xmlns="http://www.w3.org/2000/svg" width="261.189" height="60.296" viewBox="0 0 261.189 60.296">
  <g id="Group_736" data-name="Group 736" transform="translate(-139.811 -21)">
    <text id="LAB_GENOMICS" data-name="LAB GENOMICS" transform="translate(218 59)" fill="#fff" font-size="20" font-family="Helvetica-Bold, Helvetica" font-weight="700" letter-spacing="0.121em"><tspan x="0" y="0">LAB GENOMICS</tspan></text>
    <g id="Group_573" data-name="Group 573" transform="translate(139.813 20.965)">
      <path id="XMLID_44_" d="M62.329,31.1c2.9,3.873,2.876,10.081-1.509,13.071a61.784,61.784,0,0,1-8.23,4.442C48.4,50.607,44.1,52.344,39.917,54.338a22.332,22.332,0,0,0-4.357,2.9c-4.215,3.417-5.382,7.746-3.446,12.843.826,2.136,1.965,4.158,2.791,6.436a26.058,26.058,0,0,1-2.193-2.506c-1.851-2.62-3.987-5.126-5.325-7.974-2.677-5.7-.911-11.22,4.272-14.837,3.389-2.364,7.29-3.5,11.163-4.756,4.044-1.31,8.145-2.506,12.074-4.1,3.389-1.367,6.208-3.56,7.062-7.4A21.969,21.969,0,0,0,62.329,31.1Z" transform="translate(-18.703 -22.218)" fill="#fff"/>
      <path id="XMLID_43_" d="M7.6,131.5c2.648-.456,5.268-.854,7.917-1.338a37.83,37.83,0,0,0,16.574-7.034c6.066-4.67,7.746-10.423,5.012-17.6-.484-1.282-1.111-2.506-1.766-3.958,1.225-.513,2.449-1.025,3.759-1.566,2.449,4.556,4.329,9.2,3.958,14.381-.456,6.237-4.129,10.309-9.455,13.1-5.7,2.962-11.875,4.072-18.254,4.3-2.591.085-5.154.028-7.746.028C7.6,131.7,7.6,131.61,7.6,131.5Z" transform="translate(-5.437 -71.497)" fill="#fff"/>
      <path id="XMLID_42_" d="M90.092,26.138c-.142.171-.142.228-.2.228-4.158,1.367-3.389,1.623-4.386-2.136a21.147,21.147,0,0,1-.6-7.547c.513-4.3,3.5-6.721,7.461-8.059,5.639-1.88,14.894-.74,20.276,1.509-4.613-.342-9.255-.513-13.812.655A18.7,18.7,0,0,0,95.617,11.9c-4.841,2.221-6.977,6.35-6.066,11.59C89.751,24.4,89.95,25.312,90.092,26.138Z" transform="translate(-60.648 -5.467)" fill="#fff"/>
      <path id="XMLID_41_" d="M73.771,142.3c-.171.37-.228.57-.313.712-1.111,2.221-1.2,2.221-3.1.769-2.9-2.221-5.781-4.442-8.686-6.692a2.76,2.76,0,0,1-.968-1.225c.37,0,.8-.142,1.082.028C65.769,137.968,69.7,140.1,73.771,142.3Z" transform="translate(-43.415 -97.106)" fill="#fff"/>
      <path id="XMLID_40_" d="M52.3,150c.683.085,1.139,0,1.367.2,3.133,2.563,6.237,5.183,9.455,7.888a7.247,7.247,0,0,1-1.766,1.168,1.906,1.906,0,0,1-1.652-.285c-2.364-2.648-4.642-5.354-6.949-8.059C52.67,150.769,52.613,150.6,52.3,150Z" transform="translate(-37.408 -107.259)" fill="#fff"/>
      <path id="XMLID_39_" d="M81.362,130.643c-3.873-1.538-7.717-3.047-11.562-4.556v-.4a8.724,8.724,0,0,1,1.908-.085c2.876.57,5.724,1.225,8.6,1.88C81.5,127.767,81.789,128.593,81.362,130.643Z" transform="translate(-49.924 -89.781)" fill="#fff"/>
      <path id="XMLID_38_" d="M159.6,162.648a2.649,2.649,0,0,1,5.3-.085,2.766,2.766,0,0,1-2.734,2.705A2.565,2.565,0,0,1,159.6,162.648Z" transform="translate(-114.151 -114.411)" fill="#fff"/>
      <path id="XMLID_37_" d="M188.992,120.7a2.607,2.607,0,0,1-2.62,2.591,2.644,2.644,0,0,1-2.677-2.705,2.7,2.7,0,0,1,2.791-2.591A2.611,2.611,0,0,1,188.992,120.7Z" transform="translate(-131.383 -84.366)" fill="#fff"/>
      <path id="XMLID_36_" d="M15.247,47A2.567,2.567,0,0,1,17.924,49.5a2.665,2.665,0,0,1-5.325.2A2.621,2.621,0,0,1,15.247,47Z" transform="translate(-9.012 -33.589)" fill="#fff"/>
      <path id="XMLID_35_" d="M174.7,49.776a2.512,2.512,0,0,1,2.62-2.677A2.778,2.778,0,0,1,180,49.69a2.7,2.7,0,0,1-2.705,2.677A2.5,2.5,0,0,1,174.7,49.776Z" transform="translate(-124.951 -33.661)" fill="#fff"/>
      <path id="XMLID_34_" d="M142.7,175a2.466,2.466,0,0,1,2.591,2.591,2.676,2.676,0,0,1-2.591,2.677A2.71,2.71,0,0,1,140,177.535,2.6,2.6,0,0,1,142.7,175Z" transform="translate(-100.132 -125.139)" fill="#fff"/>
      <path id="XMLID_33_" d="M174.5,143.347a2.541,2.541,0,0,1,2.705-2.648,2.62,2.62,0,1,1-.057,5.24A2.561,2.561,0,0,1,174.5,143.347Z" transform="translate(-124.808 -100.606)" fill="#fff"/>
      <path id="XMLID_32_" d="M3.4,120.447A2.467,2.467,0,0,1,6.048,117.8a2.514,2.514,0,0,1,2.563,2.62A2.581,2.581,0,0,1,5.963,123.1,2.538,2.538,0,0,1,3.4,120.447Z" transform="translate(-2.433 -84.227)" fill="#fff"/>
      <path id="XMLID_31_" d="M192.2,96.486a2.572,2.572,0,0,1-2.535,2.677,2.646,2.646,0,0,1-2.762-2.62,2.649,2.649,0,0,1,5.3-.057Z" transform="translate(-133.676 -67.129)" fill="#fff"/>
      <path id="XMLID_30_" d="M3.4,72.157a2.492,2.492,0,0,1,2.762-2.563A2.589,2.589,0,0,1,8.668,72.3a2.617,2.617,0,0,1-2.734,2.506A2.515,2.515,0,0,1,3.4,72.157Z" transform="translate(-2.433 -49.749)" fill="#fff"/>
      <path id="XMLID_29_" d="M2.619,98.953A2.5,2.5,0,0,1,0,96.39,2.559,2.559,0,0,1,2.761,93.8a2.578,2.578,0,1,1-.142,5.154Z" transform="translate(0 -67.062)" fill="#fff"/>
      <path id="XMLID_28_" d="M189.024,72.348a2.65,2.65,0,0,1-2.62,2.62,2.686,2.686,0,0,1-2.705-2.705,2.565,2.565,0,0,1,2.62-2.563A2.6,2.6,0,0,1,189.024,72.348Z" transform="translate(-131.387 -49.826)" fill="#fff"/>
      <path id="XMLID_27_" d="M49.377,13a2.422,2.422,0,0,1,2.591,2.535A2.588,2.588,0,0,1,49.32,18.24a2.8,2.8,0,0,1-2.62-2.677A2.615,2.615,0,0,1,49.377,13Z" transform="translate(-33.402 -9.273)" fill="#fff"/>
      <path id="XMLID_26_" d="M69.6,6.257a2.456,2.456,0,0,1,2.734-2.563,2.554,2.554,0,0,1,2.535,2.677,2.672,2.672,0,0,1-2.705,2.535A2.537,2.537,0,0,1,69.6,6.257Z" transform="translate(-49.78 -2.616)" fill="#fff"/>
      <path id="XMLID_25_" d="M30.191,27.8A2.593,2.593,0,0,1,32.9,30.3a2.674,2.674,0,0,1-2.591,2.677,2.534,2.534,0,0,1-2.705-2.62A2.475,2.475,0,0,1,30.191,27.8Z" transform="translate(-19.742 -19.857)" fill="#fff"/>
      <path id="XMLID_24_" d="M120.063,190.248a14.972,14.972,0,0,1-2.107-1.652,1.018,1.018,0,0,1,.256-1.68,9.329,9.329,0,0,0,1.367-1.225c1.2-1.2,2.364-.968,3.076.6C123.452,188,122.2,189.963,120.063,190.248Z" transform="translate(-84.126 -132.242)" fill="#fff"/>
      <path id="XMLID_23_" d="M165.552,33.03c-.484-1.623-.968-3.189-1.452-4.841a2.526,2.526,0,0,1,2.933.057,2.435,2.435,0,0,1,1.054,2.705A2.7,2.7,0,0,1,165.552,33.03Z" transform="translate(-117.37 -19.82)" fill="#fff"/>
      <path id="XMLID_22_" d="M125.8,26.845c1.424-1.025,2.25-.854,2.9.513.8,1.652,1.823,3.218,2.705,4.841a5.086,5.086,0,0,1,.37,1.168c-.114.057-.256.142-.37.2C129.559,31.344,127.708,29.123,125.8,26.845Z" transform="translate(-89.977 -18.704)" fill="#fff"/>
      <path id="XMLID_21_" d="M111.7,36.783c1.139-.712,1.908-.74,2.791.171,1.851,1.936,3.788,3.731,5.7,5.61-.142.171-.285.342-.456.513C117.054,41.054,114.405,38.976,111.7,36.783Z" transform="translate(-79.892 -25.908)" fill="#fff"/>
      <path id="XMLID_20_" d="M14.8,140.8c.37,1.652.74,3.3,1.111,4.927-1.965.285-3.218-.427-3.389-1.993A2.362,2.362,0,0,1,14.8,140.8Z" transform="translate(-8.94 -100.678)" fill="#fff"/>
      <path id="XMLID_19_" d="M170.608,109.47c-1.281.057-1.908-.513-1.908-1.737,0-.712,1.538-1.965,2.421-1.851a1.613,1.613,0,0,1,1.424,1.794C172.573,108.9,171.889,109.47,170.608,109.47Z" transform="translate(-120.66 -75.699)" fill="#fff"/>
      <path id="XMLID_18_" d="M170.563,90.674c-1.2.085-1.908-.4-1.965-1.652-.028-1.082.854-1.823,2.364-1.823,1.054,0,1.452.74,1.452,1.68C172.471,90.048,171.788,90.674,170.563,90.674Z" transform="translate(-120.587 -62.342)" fill="#fff"/>
      <path id="XMLID_17_" d="M25.7,91.408c-1.281.057-1.993-.4-2.107-1.566-.057-.6,1.851-2.307,2.421-2.022a2.774,2.774,0,0,1,1.367,1.68A1.587,1.587,0,0,1,25.7,91.408Z" transform="translate(-16.878 -62.763)" fill="#fff"/>
      <path id="XMLID_16_" d="M113.316,54.138a4.779,4.779,0,0,1-1.111-.2c-2.107-.826-4.186-1.68-6.265-2.591-.342-.142-.513-.712-.74-1.082.456-.085,1.025-.37,1.367-.2,2.307,1.168,4.556,2.449,6.835,3.674C113.373,53.881,113.345,54.024,113.316,54.138Z" transform="translate(-75.243 -35.745)" fill="#fff"/>
      <path id="XMLID_15_" d="M32.173,72.34c-.228.256-.627,1.025-1.2,1.225a2.729,2.729,0,0,1-2.05-.285c-1.111-.74-.854-1.766.37-2.25.342-.142.683-.285,1.025-.456C31.4,70.09,32.2,70.631,32.173,72.34Z" transform="translate(-20.185 -50.33)" fill="#fff"/>
      <path id="XMLID_14_" d="M165.329,128.207c-.541-.484-1.281-.854-1.538-1.452-.4-.883.228-1.31,1.082-1.566.655-.2,1.168-1.253,1.936-.484a2.86,2.86,0,0,1,.683,1.737C167.522,127.637,166.7,128.007,165.329,128.207Z" transform="translate(-117.061 -88.968)" fill="#fff"/>
      <path id="XMLID_13_" d="M41.644,54.652c.028,1.595-.627,2.307-1.794,2.335a1.743,1.743,0,0,1-2.05-1.652c-.028-.74,1.652-1.851,2.848-1.68C41.1,53.77,41.473,54.482,41.644,54.652Z" transform="translate(-27.036 -38.338)" fill="#fff"/>
      <path id="XMLID_12_" d="M144.5,157.96c-.285.285-.74,1.139-1.338,1.253a2.93,2.93,0,0,1-2.221-.683c-.826-.769-.37-1.737.74-1.993a6.767,6.767,0,0,0,1.082-.313C143.9,155.8,144.554,156.251,144.5,157.96Z" transform="translate(-100.501 -111.602)" fill="#fff"/>
      <path id="XMLID_11_" d="M156.423,145.239a1.509,1.509,0,0,1-1.936-1.424c-.028-.285.057-.74.256-.826a7.289,7.289,0,0,1,2.449-1c.313-.057,1,.683,1.139,1.139a1.658,1.658,0,0,1-1.139,2.136A3.2,3.2,0,0,1,156.423,145.239Z" transform="translate(-110.49 -101.529)" fill="#fff"/>
      <path id="XMLID_10_" d="M71.643,32.273c-.028,1.595-.854,2.364-2.05,2.307A1.645,1.645,0,0,1,67.8,32.843c-.028-.94,1.054-1.538,2.791-1.4C71.045,31.476,71.444,32.1,71.643,32.273Z" transform="translate(-48.492 -22.452)" fill="#fff"/>
      <path id="XMLID_9_" d="M167.615,71.179c0,1.538-.854,2.335-1.993,2.335-1.082-.028-1.794-.513-1.823-1.68-.028-.94,1.111-1.623,2.734-1.481C166.96,70.381,167.358,70.979,167.615,71.179Z" transform="translate(-117.154 -50.279)" fill="#fff"/>
      <path id="XMLID_8_" d="M52.545,44.23c-.37-.456-.94-1.111-1.452-1.766-.057-.085-.057-.37,0-.4A26.415,26.415,0,0,1,54.254,40.9a2.275,2.275,0,0,1,.769,1.4C54.937,43.433,54.14,44.031,52.545,44.23Z" transform="translate(-36.514 -29.226)" fill="#fff"/>
      <path id="XMLID_7_" d="M88.077,112.893c-2.307-.313-4.642-.6-6.949-.911a4.205,4.205,0,0,0-.028-.6,59.293,59.293,0,0,1,5.923-.484c.427,0,.854,1.025,1.281,1.595C88.248,112.609,88.162,112.751,88.077,112.893Z" transform="translate(-58.006 -79.293)" fill="#fff"/>
      <path id="XMLID_6_" d="M93.632,3.528a2.566,2.566,0,0,1,1.2-3.076,2.5,2.5,0,0,1,3.389.6C96.708,1.848,95.255,2.645,93.632,3.528Z" transform="translate(-66.893 0)" fill="#fff"/>
      <path id="XMLID_5_" d="M106.156,65.2c1.424.37,2.876.712,4.471,1.111-1.424,1.025-2.819.285-4.158.285-.2,0-.4-.712-.57-1.111C105.985,65.4,106.071,65.285,106.156,65.2Z" transform="translate(-75.744 -46.607)" fill="#fff"/>
      <path id="XMLID_4_" d="M30.243,168.988c-2.25-.37-2.9-1.4-2.421-3.588C28.62,166.6,29.389,167.707,30.243,168.988Z" transform="translate(-19.793 -118.273)" fill="#fff"/>
      <path id="XMLID_3_" d="M98.9,200.337c1.281-.655,2.307-1.2,3.389-1.737C101.976,200.252,101.007,200.793,98.9,200.337Z" transform="translate(-70.737 -142.018)" fill="#fff"/>
      <path id="XMLID_2_" d="M25.43,105.9c-.57,1.082-1,1.88-1.452,2.734C23.436,107.267,23.721,106.669,25.43,105.9Z" transform="translate(-16.973 -75.717)" fill="#fff"/>
      <path id="XMLID_1_" d="M132.8,170.706c.456-1.025.8-1.766,1.139-2.506C134.452,169.282,134.2,170.051,132.8,170.706Z" transform="translate(-94.983 -120.276)" fill="#fff"/>
    </g>
  </g>
</svg>
